<svg xmlns="http://www.w3.org/2000/svg" xmlns:xlink="http://www.w3.org/1999/xlink" width="55" height="55" viewBox="0 0 55 55"><defs><style>.a{fill:#fff;}.b{fill:url(#c);}.c{filter:url(#a);}</style><filter id="a" x="0" y="0" width="55" height="55" filterUnits="userSpaceOnUse"><feOffset dy="3" input="SourceAlpha"/><feGaussianBlur stdDeviation="2.5" result="b"/><feFlood flood-color="#a6b4c8" flood-opacity="0.302"/><feComposite operator="in" in2="b"/><feComposite in="SourceGraphic"/></filter><linearGradient id="c" x1="-0.115" y1="-0.171" x2="0.927" y2="1.071" gradientUnits="objectBoundingBox"><stop offset="0" stop-color="#addce4"/><stop offset="1" stop-color="#48b6d0"/></linearGradient></defs><g transform="translate(7.5 4.5)"><g class="c" transform="matrix(1, 0, 0, 1, -7.5, -4.5)"><path class="a" d="M20,0A20,20,0,1,1,0,20,20,20,0,0,1,20,0Z" transform="translate(7.5 4.5)"/></g><g transform="translate(-16.625 -16)"><path class="b" d="M46.625,29.679V44.385a2.006,2.006,0,0,1-2.006,2.006H28.63a2.006,2.006,0,0,1-2.005-2.006V29.679a2.006,2.006,0,0,1,2.005-2.006h2.006V25.5a.5.5,0,0,1,.5-.5h1.671a.5.5,0,0,1,.5.5v2.172h6.631V25.5a.5.5,0,0,1,.5-.5h1.671a.5.5,0,0,1,.5.5v2.172h2.005A2.006,2.006,0,0,1,46.625,29.679ZM44.619,44.134V33.4H28.63V44.134a.251.251,0,0,0,.251.251H44.369A.251.251,0,0,0,44.619,44.134Z" transform="translate(0 0)"/></g></g></svg>