<svg xmlns="http://www.w3.org/2000/svg" xmlns:xlink="http://www.w3.org/1999/xlink" width="360" height="42" viewBox="0 0 360 42"><defs><style>.a{fill:#fff;}.b{fill:url(#a);}</style><linearGradient id="a" x1="0.104" y1="0.083" x2="0.854" y2="0.875" gradientUnits="objectBoundingBox"><stop offset="0" stop-color="#abdbe4"/><stop offset="1" stop-color="#69c3d8"/></linearGradient></defs><path class="a" d="M20,0H340a20,20,0,0,1,20,20V42a0,0,0,0,1,0,0H0a0,0,0,0,1,0,0V20A20,20,0,0,1,20,0Z"/><g transform="translate(115.377 -27.588)"><path class="b" d="M74.623,48.588h0a1.25,1.25,0,0,1-1.25,1.25h-7.5v7.5a1.25,1.25,0,0,1-1.25,1.25h0a1.25,1.25,0,0,1-1.25-1.249v-7.5h-7.5a1.25,1.25,0,0,1-1.25-1.25h0a1.25,1.25,0,0,1,1.25-1.25h7.5v-7.5a1.25,1.25,0,0,1,1.25-1.25h0a1.25,1.25,0,0,1,1.25,1.25v7.5h7.5A1.25,1.25,0,0,1,74.623,48.588Z" transform="translate(0 0)"/></g></svg>