<svg xmlns="http://www.w3.org/2000/svg" xmlns:xlink="http://www.w3.org/1999/xlink" width="20" height="21.39" viewBox="0 0 20 21.39"><defs><style>.a{fill:url(#a);}</style><linearGradient id="a" x1="-0.115" y1="-0.171" x2="0.927" y2="1.071" gradientUnits="objectBoundingBox"><stop offset="0" stop-color="#addce4"/><stop offset="1" stop-color="#48b6d0"/></linearGradient></defs><g transform="translate(-26.625 -25)"><path class="a" d="M46.625,29.679V44.385a2.006,2.006,0,0,1-2.006,2.006H28.63a2.006,2.006,0,0,1-2.005-2.006V29.679a2.006,2.006,0,0,1,2.005-2.006h2.006V25.5a.5.5,0,0,1,.5-.5h1.671a.5.5,0,0,1,.5.5v2.172h6.631V25.5a.5.5,0,0,1,.5-.5h1.671a.5.5,0,0,1,.5.5v2.172h2.005A2.006,2.006,0,0,1,46.625,29.679ZM44.619,44.134V33.4H28.63V44.134a.251.251,0,0,0,.251.251H44.369A.251.251,0,0,0,44.619,44.134Z" transform="translate(0 0)"/></g></svg>